# xmcd
#
# Track frame offsets: 
#        150
#        33327
#        54361
#        79036
#        110785
#        153572
#        189659
#        214010
#        227055
#        269031
#        286104
#        324697
#
# Disc length: 4743 seconds
#
# Revision: 0
# Processed by: cddbd v1.5.2PL0 Copyright (c) Steve Scherf et al.
# Submitted via: ExactAudioCopyFreeDBPlugin 1.0
#
DISCID=ac12850c
DTITLE=John Mayall - The Turning point
DYEAR=1969
DGENRE=Blues
TTITLE0=The Laws Must Change
TTITLE1=Saw Mill Gulch Road
TTITLE2=I'm Gonna Fight For You J.B.
TTITLE3=So Hard To Share
TTITLE4=California
TTITLE5=Thoughts About Roxanne
TTITLE6=Room To Move
TTITLE7=Sleeping By Her Side (Bonus Track)
TTITLE8=Don't Waste My Time (Bonus Track)
TTITLE9=Can't Sleep This Night (Bonus Track)
TTITLE10=Bonus Track
TTITLE11=Bonus Track
EXTD=
EXTT0=
EXTT1=
EXTT2=
EXTT3=
EXTT4=
EXTT5=
EXTT6=
EXTT7=
EXTT8=
EXTT9=
EXTT10=
EXTT11=
PLAYORDER=
